<?xml version="1.0" standalone="no"?><!DOCTYPE svg PUBLIC "-//W3C//DTD SVG 1.1//EN" "http://www.w3.org/Graphics/SVG/1.1/DTD/svg11.dtd"><svg t="1673060501372" class="icon" viewBox="0 0 1024 1024" version="1.1" xmlns="http://www.w3.org/2000/svg" p-id="2486" xmlns:xlink="http://www.w3.org/1999/xlink" width="200" height="200"><path d="M512 542.72L286.72 412.16V151.04L512 20.48l225.28 130.56v261.12L512 542.72zM339.2 381.44L512 481.28l172.8-99.84V181.76L512 81.92l-172.8 99.84v199.68zM776.96 1006.08L551.68 875.52V614.4l225.28-130.56L1002.24 614.4v261.12L776.96 1006.08zM602.88 844.8l172.8 99.84L949.76 844.8V645.12l-172.8-99.84-172.8 99.84V844.8zM247.04 1006.08L21.76 875.52V614.4l225.28-130.56L473.6 614.4v261.12L247.04 1006.08zM74.24 844.8l172.8 99.84L421.12 844.8V645.12l-172.8-99.84-174.08 99.84V844.8z" fill="#ffffff" p-id="2487"></path></svg>