<?xml version="1.0" standalone="no"?><!DOCTYPE svg PUBLIC "-//W3C//DTD SVG 1.1//EN" "http://www.w3.org/Graphics/SVG/1.1/DTD/svg11.dtd"><svg t="1660809188956" class="icon" viewBox="0 0 1024 1024" version="1.1" xmlns="http://www.w3.org/2000/svg" p-id="4376" xmlns:xlink="http://www.w3.org/1999/xlink" width="128" height="128"><defs><style type="text/css">@font-face { font-family: feedback-iconfont; src: url("//at.alicdn.com/t/font_1031158_u69w8yhxdu.woff2?t=1630033759944") format("woff2"), url("//at.alicdn.com/t/font_1031158_u69w8yhxdu.woff?t=1630033759944") format("woff"), url("//at.alicdn.com/t/font_1031158_u69w8yhxdu.ttf?t=1630033759944") format("truetype"); }
</style></defs><path d="M938.666667 640a128 128 0 0 0-128-128h-128v426.666667h85.333333v-170.666667h51.2l34.133333 170.666667h85.333334l-40.96-205.013334A128 128 0 0 0 938.666667 640z m-170.666667 42.666667v-85.333334h42.666667a42.666667 42.666667 0 0 1 0 85.333334z m-256-85.333334a42.666667 42.666667 0 0 1 42.666667 42.666667v42.666667h-85.333334v-42.666667a42.666667 42.666667 0 0 1 42.666667-42.666667m0-85.333333a128 128 0 0 0-128 128v298.666667h85.333333v-170.666667h85.333334v170.666667h85.333333V640a128 128 0 0 0-128-128z m-170.666667 0v298.666667a128 128 0 0 1-256 0v-42.666667h85.333334v42.666667a42.666667 42.666667 0 0 0 85.333333 0V512z m-170.666666-42.666667H85.333333V85.333333h640l213.333334 213.333334v170.666666h-85.333334v-135.253333L689.92 170.666667H170.666667z" p-id="4377" fill="#ffffff"></path></svg>