<?xml version="1.0" standalone="no"?><!DOCTYPE svg PUBLIC "-//W3C//DTD SVG 1.1//EN" "http://www.w3.org/Graphics/SVG/1.1/DTD/svg11.dtd"><svg t="1673501537358" class="icon" viewBox="0 0 1109 1024" version="1.1" xmlns="http://www.w3.org/2000/svg" p-id="5275" xmlns:xlink="http://www.w3.org/1999/xlink" width="216.6015625" height="200"><path d="M861.781333 528.384h107.178667V468.48h-107.178667v59.989333z m-300.202666 332.8h59.989333V754.176h-59.989333v107.178667z m307.797333-598.186667L793.6 338.773333l-42.496-42.410666 75.776-75.776 42.496 42.410666zM826.88 776.192l-75.776-75.776 42.496-42.496 75.776 75.861333-42.496 42.410667zM420.352 660.48l142.336-142.421333V230.229333h91.050667v323.84l-168.96 170.837334-64.426667-64.426667z m600.832-169.216A405.333333 405.333333 0 0 1 616.362667 896a405.333333 405.333333 0 0 1-401.066667-350.72l61.610667 60.842667 61.098666-61.098667L169.216 376.32 0 545.109333l61.098667 61.098667 66.56-66.56a491.861333 491.861333 0 0 0 488.704 442.88 491.776 491.776 0 0 0 491.264-491.264A491.861333 491.861333 0 0 0 616.362667 0v86.357333a405.333333 405.333333 0 0 1 404.821333 404.906667z" fill="#ffffff" p-id="5276"></path></svg>