<?xml version="1.0" standalone="no"?><!DOCTYPE svg PUBLIC "-//W3C//DTD SVG 1.1//EN" "http://www.w3.org/Graphics/SVG/1.1/DTD/svg11.dtd"><svg t="1675238091136" class="icon" viewBox="0 0 1024 1024" version="1.1" xmlns="http://www.w3.org/2000/svg" p-id="2718" xmlns:xlink="http://www.w3.org/1999/xlink" width="200" height="200"><path d="M639.45 480z" fill="#ffffff" p-id="2719"></path><path d="M638.36 480H640z" fill="#ffffff" p-id="2720"></path><path d="M638.36 480H640z" fill="#ffffff" p-id="2721"></path><path d="M519.3 493.94A207.53 207.53 0 0 0 592 336c0-114.87-93.13-208-208-208s-208 93.12-208 208a207.52 207.52 0 0 0 72.68 158C139.59 544.92 64 655.6 64 784a320.39 320.39 0 0 0 10.16 80.27c0.37 1.43 0.76 2.85 1.15 4.27a40 40 0 0 0 77-21.68c-0.26-1-0.53-1.93-0.78-2.91A240.31 240.31 0 0 1 144 784c0-132.54 107.45-240 240-240s240 107.42 240 240a240.28 240.28 0 0 1-7.54 59.88c-0.27 1.06-0.56 2.11-0.85 3.16a40 40 0 0 0 77.1 21.4c0.36-1.33 0.73-2.65 1.08-4A320.33 320.33 0 0 0 704 784c0-128.4-75.61-239.08-184.7-290.06zM384 464a128 128 0 1 1 128-128 128 128 0 0 1-128 128z" fill="#ffffff" p-id="2722"></path><path d="M775.31 493.93A207.48 207.48 0 0 0 848 336c0-114.06-91.81-206.66-205.57-208H637.57a40.07 40.07 0 0 0-36.75 48.25c0.37 1.43 0.77 2.84 1.16 4.27A40 40 0 0 0 638.49 208h2.84a128 128 0 0 1 0.75 256c-0.69 0-1.38-0.05-2.08-0.05s-1.33 0-2 0.05l-0.9 0.06a40.09 40.09 0 0 0-35.29 27.82c-0.27 1.06-0.56 2.11-0.85 3.16a40 40 0 0 0 37.4 49h2.2C772.85 544.28 880 651.6 880 784a240.27 240.27 0 0 1-7.53 59.88c-0.27 1.06-0.57 2.11-0.85 3.16a40 40 0 0 0 77.1 21.4c0.36-1.33 0.73-2.65 1.07-4A320.33 320.33 0 0 0 960 784c0-128.41-75.6-239.09-184.69-290.07z" fill="#ffffff" p-id="2723"></path></svg>